<svg xmlns="http://www.w3.org/2000/svg" width="34.017" height="24" viewBox="0 0 34.017 24">
  <g id="quote" transform="translate(-1 -5.415)">
    <path id="Path_95" data-name="Path 95" d="M7.34,21.091a19.23,19.23,0,0,1-3.5,5.534,1.675,1.675,0,0,0-.159,2.018,1.639,1.639,0,0,0,1.4.771,1.38,1.38,0,0,0,.476-.068c3.328-.975,11.106-4.434,11.321-15.523a8.167,8.167,0,0,0-7.11-8.368A7.941,7.941,0,0,0,1,13.37a7.856,7.856,0,0,0,6.34,7.722Z" transform="translate(0 0)" fill="#203353"/>
    <path id="Path_96" data-name="Path 96" d="M25.733,5.455a7.94,7.94,0,0,0-8.763,7.915,7.856,7.856,0,0,0,6.34,7.722,19.232,19.232,0,0,1-3.5,5.534,1.674,1.674,0,0,0-.158,2.018,1.639,1.639,0,0,0,1.4.771,1.379,1.379,0,0,0,.475-.068c3.328-.975,11.106-4.434,11.321-15.523v-.159a8.159,8.159,0,0,0-7.121-8.21Z" transform="translate(2.164)" fill="#203353"/>
  </g>
</svg>
