<svg xmlns="http://www.w3.org/2000/svg" width="90" height="90" viewBox="0 0 90 90">
  <g id="Group_16" data-name="Group 16" transform="translate(-761 -1773)">
    <g id="play-circle_bulk" data-name="play-circle/bulk" transform="translate(761 1773)">
      <g id="vuesax_bulk_play-circle" data-name="vuesax/bulk/play-circle">
        <g id="play-circle">
          <path id="Vector" d="M75.161,37.58A37.58,37.58,0,1,1,37.58,0,37.58,37.58,0,0,1,75.161,37.58Z" transform="translate(7.308 7.42)" fill="#F5B316" opacity="0.2"/>
          <path id="Vector-2" data-name="Vector" d="M23.594,7.364l-10.758-6.2a8.44,8.44,0,0,0-8.57,0A8.476,8.476,0,0,0,0,8.588V21.016a8.549,8.549,0,0,0,8.532,8.57,8.377,8.377,0,0,0,4.266-1.15l10.758-6.2a8.476,8.476,0,0,0,4.266-7.42A8.28,8.28,0,0,0,23.594,7.364Z" transform="translate(32.445 31.084)" fill="#F5B316"/>
          <path id="Vector-3" data-name="Vector" d="M0,0H90V90H0Z" fill="none" opacity="0"/>
        </g>
      </g>
    </g>
  </g>
</svg>
